<svg xmlns="http://www.w3.org/2000/svg" width="24" height="24" viewBox="0 0 24 24" role="img" aria-label="CHZZK / 치지직">
  <title>CHZZK / 치지직</title>
  <g transform="translate(-0.62780 -0.57848) scale(0.0986547)">
    <path fill="#00ffa3" fill-rule="evenodd" d="M103,16 102,18 100,19 100,21 98,22 94,29 92,30 88,37 85,39 86,40 84,41 84,43 82,44 76,54 74,55 62,73 59,75 56,81 53,84 51,88 49,89 46,95 42,99 39,104 40,105 115,105 116,106 115,108 113,109 114,110 107,118 106,121 103,123 100,129 97,133 95,134 89,144 87,145 84,151 81,155 79,156 75,163 72,165 71,168 66,174 63,180 61,181 59,185 50,196 49,199 46,201 45,204 36,215 33,221 28,226 27,229 23,233 22,236 20,237 20,239 228,239 228,182 142,182 141,180 143,177 145,176 145,174 147,173 161,152 164,150 165,147 171,140 175,133 178,131 177,130 181,126 184,121 186,120 186,118 190,114 193,108 196,106 197,103 200,99 202,98 202,96 212,84 218,74 220,73 224,66 226,65 226,63 228,62 228,60 232,56 236,50 236,48 160,48 159,47 171,32 174,26 177,24 178,21 182,16Z"/>
  </g>
</svg>
