<svg xmlns="http://www.w3.org/2000/svg" viewBox="0 0 36 24" role="img" aria-label="South Korea">
  <rect width="36" height="24" fill="#fff"/>
  <g transform="translate(18 12) rotate(33)">
    <circle r="6" fill="#cd2e3a"/>
    <path d="M-6 0a6 6 0 0 0 12 0c-1.5 1.5-4.5 1.5-6 0s-4.5-1.5-6 0Z" fill="#0047a0"/>
  </g>
  <g fill="#111">
    <path d="M5.2 5.3l5.6-3.2.7 1.2-5.6 3.2zm1.1 1.9L11.9 4l.7 1.2L7 8.4zm1.1 1.9L13 5.9l.7 1.2-5.6 3.2z"/>
    <path d="M25.2 18.7l5.6-3.2.7 1.2-5.6 3.2zm1.1 1.9l2.4-1.4.7 1.2-2.4 1.4zm3.1-1.8l2.5-1.4.7 1.2-2.5 1.4zm-2-2.1l2.4-1.4.7 1.2-2.4 1.4zm3.1-1.8l2.5-1.4.7 1.2-2.5 1.4z"/>
    <path d="M25.4 5.1l2.4 1.4-.7 1.2-2.4-1.4zm3.1 1.8L31 8.3l-.7 1.2-2.5-1.4zm-4.2 0l5.6 3.2-.7 1.2-5.6-3.2zm-1.1 1.9l2.4 1.4-.7 1.2-2.4-1.4zm3.1 1.8l2.5 1.4-.7 1.2-2.5-1.4z"/>
    <path d="M5 16.8l2.4-1.4.7 1.2L5.7 18zm3.1-1.8l2.5-1.4.7 1.2-2.5 1.4zm-2 4.3l5.6-3.2.7 1.2-5.6 3.2zm1.1 1.9l2.4-1.4.7 1.2-2.4 1.4zm3.1-1.8l2.5-1.4.7 1.2-2.5 1.4z"/>
  </g>
</svg>
